<svg id="Capa_1" enable-background="new 0 0 512.001 512.001" height="512" viewBox="0 0 512.001 512.001" width="512" xmlns="http://www.w3.org/2000/svg"><g><g><path d="m13.735 246.908 242.266-149.408 242.265 149.408-242.265 157.36z" fill="#fef0ae"/><path d="m256.001 97.5-17.039 10.508 240.914 148.575 18.39-9.675z" fill="#fee97d"/><path d="m398.001 504.5h-284c-16.568 0-30-13.432-30-30v-437c0-16.569 13.432-30 30-30h284c16.569 0 30 13.431 30 30v437c0 16.569-13.432 30-30 30z" fill="#eaf6ff"/><path d="m398.001 7.5h-30c16.568 0 30 13.431 30 30v437c0 16.568-13.432 30-30 30h30c16.568 0 30-13.432 30-30v-437c0-16.568-13.432-30-30-30z" fill="#d8ecfe"/><path d="m474.501 504.5h-437c-16.569 0-30-13.432-30-30v-215.424c0-11.677 12.754-18.876 22.752-12.842l210.245 126.908c9.534 5.755 21.472 5.755 31.006 0l210.245-126.908c9.997-6.035 22.752 1.165 22.752 12.842v215.424c0 16.569-13.432 30-30 30z" fill="#f6df7f"/><g><path d="m481.749 246.234-9.14 5.517c1.191 2.125 1.892 4.601 1.892 7.325v215.424c0 16.568-13.432 30-30 30h30c16.568 0 30-13.432 30-30v-215.424c0-11.678-12.755-18.877-22.752-12.842z" fill="#efd06f"/></g><path d="m15.424 494.808c5.483 5.957 13.342 9.692 22.076 9.692h437c8.734 0 16.594-3.735 22.076-9.692l-225.384-132.355c-9.379-5.508-21.004-5.508-30.383 0z" fill="#fef0ae"/><path d="m496.577 494.808-22.877-13.434c-3.109 13.254-14.997 23.126-29.199 23.126h30c8.054.001 15.918-3.048 22.076-9.692z" fill="#fee97d"/><g><path d="m205.703 186.5v56c0 5.523-4.477 10-10 10h-56c-5.523 0-10-4.477-10-10v-56c0-5.523 4.477-10 10-10h56c5.523 0 10 4.478 10 10z" fill="#d8ecfe"/></g><path d="m362.501 101.5h-213c-6.075 0-11-4.925-11-11v-28.837c0-6.075 4.925-11 11-11h213c6.075 0 11 4.925 11 11v28.837c0 6.075-4.925 11-11 11z" fill="#c4e2ff"/><path d="m362.501 50.663h-30c6.075 0 11 4.925 11 11v28.837c0 6.075-4.925 11-11 11h30c6.075 0 11-4.925 11-11v-28.837c0-6.075-4.925-11-11-11z" fill="#b3dafe"/></g><path d="m122.203 186.5v56c0 9.649 7.851 17.5 17.5 17.5h56c9.649 0 17.5-7.851 17.5-17.5v-12.125c0-4.142-3.357-7.5-7.5-7.5s-7.5 3.358-7.5 7.5v12.125c0 1.378-1.121 2.5-2.5 2.5h-56c-1.379 0-2.5-1.122-2.5-2.5v-56c0-1.378 1.121-2.5 2.5-2.5h42.731c4.143 0 7.5-3.358 7.5-7.5s-3.357-7.5-7.5-7.5h-42.731c-9.65 0-17.5 7.851-17.5 17.5zm94.792-15.303-40.696 40.697-16.617-16.617c-2.93-2.929-7.678-2.929-10.607 0s-2.929 7.678 0 10.606l16.971 16.971c2.739 2.739 6.38 4.247 10.254 4.247 3.873 0 7.514-1.508 10.253-4.247l41.051-41.05c2.929-2.929 2.929-7.678 0-10.606-2.931-2.93-7.679-2.93-10.609-.001zm164.006-109.534c0-10.201-8.299-18.5-18.5-18.5h-213c-10.201 0-18.5 8.299-18.5 18.5v28.837c0 10.201 8.299 18.5 18.5 18.5h213c10.201 0 18.5-8.299 18.5-18.5zm-15 28.837c0 1.93-1.57 3.5-3.5 3.5h-213c-1.93 0-3.5-1.57-3.5-3.5v-28.837c0-1.93 1.57-3.5 3.5-3.5h213c1.93 0 3.5 1.57 3.5 3.5zm13.5 86c0-4.142-3.357-7.5-7.5-7.5h-116c-4.143 0-7.5 3.358-7.5 7.5s3.357 7.5 7.5 7.5h116c4.142 0 7.5-3.358 7.5-7.5zm120.747 62.819-64.748-39.934v-161.885c0-20.678-16.822-37.5-37.5-37.5h-284c-20.678 0-37.5 16.822-37.5 37.5v62.813c0 4.142 3.357 7.5 7.5 7.5s7.5-3.358 7.5-7.5v-62.813c0-12.407 10.094-22.5 22.5-22.5h284c12.406 0 22.5 10.093 22.5 22.5v236.94l-140.235 84.644-5.275-3.098c-11.713-6.879-26.266-6.879-37.979 0l-5.275 3.098-140.235-84.645v-139.125c0-4.142-3.357-7.5-7.5-7.5s-7.5 3.358-7.5 7.5v64.07l-64.748 39.935c-7.34 3.991-11.752 11.4-11.752 19.762v215.419c-.122 20.222 17.044 37.597 37.5 37.5h437c20.188.085 37.605-17.207 37.5-37.5v-215.42c.004-8.359-4.419-15.769-11.753-19.761zm-64.747-22.311 39.643 24.45-39.643 23.928zm-359 0v48.378l-39.642-23.928zm-61.5 257.492v-215.42c.006-4.023 1.937-5.648 4.25-6.762 1.368-.659 4.103-1.488 7.124.333l190.648 115.073-199.479 117.142c-1.653-3.174-2.543-6.715-2.543-10.366zm482 0c0 3.651-.891 7.191-2.543 10.366l-107.548-63.157c-3.571-2.097-8.167-.903-10.265 2.669s-.903 8.167 2.669 10.265l103.506 60.784c-2.603 1.034-5.41 1.573-8.318 1.573h-437c-2.908 0-5.716-.54-8.318-1.573l215.423-126.507c7.027-4.127 15.76-4.127 22.787 0l81.599 47.918c3.571 2.097 8.167.903 10.266-2.669 2.097-3.572.902-8.167-2.67-10.265l-61.61-36.18 190.645-115.071c4.03-2.336 6.428-1.063 8.454.483 1.264.965 2.923 2.823 2.923 5.944zm-241-275.5c-4.143 0-7.5 3.358-7.5 7.5s3.357 7.5 7.5 7.5h86c4.143 0 7.5-3.358 7.5-7.5s-3.357-7.5-7.5-7.5z"/></g></svg>